<?xml version="1.0" encoding="utf-8"?>
<!-- Generator: Adobe Illustrator 28.2.0, SVG Export Plug-In . SVG Version: 6.00 Build 0)  -->
<svg version="1.1" id="Lager_1" xmlns="http://www.w3.org/2000/svg" xmlns:xlink="http://www.w3.org/1999/xlink" x="0px" y="0px"
	 viewBox="0 0 417 144.4631" style="enable-background:new 0 0 417 144.4631;" xml:space="preserve">
<g id="VGR_00000082355684286586536380000006138938358616332467_">
	<g id="VGR">
		<path id="_x3C_Bana_x3E__00000101095198402078565270000016371280825464834990_" d="M416.2484,55.3535
			c0-17.258-10.3572-27.0868-28.4171-27.0868h-34.2548v92.9418h15.6664V72.4809l30.0087,48.7276h16.9968l-24.6995-39.7007
			C407.4827,80.4447,416.2484,70.6221,416.2484,55.3535z M369.2429,71.5484V42.2111h15.9338
			c9.8288,0,15.3991,3.9788,15.3991,14.6034c0,10.09-5.5703,14.7339-15.3991,14.7339H369.2429z"/>
		<path d="M298.9052,85.487h20.3101v3.4053h-0.0497l0.0497,0.0001v0.0062c-0.5333,14.2005-7.7005,20.3053-19.1158,20.3053
			c-14.3369,0-22.3027-7.9648-22.3027-34.1172c0-25.356,8.4961-34.1172,21.6387-34.1172c0.7043,0,1.3871,0.0396,2.0591,0.0792
			c8.779,0.5174,15.0862,5.1537,17.1556,14.7017h16.2245c-2.8724-20.5987-16.9488-29.2511-35.4391-29.2511
			c-22.3018,0-37.9668,14.8682-37.9668,48.3218c0,34.1172,13.541,48.1885,33.4531,48.1885c12.2139,0,21.7715-7.0361,24.2939-21.1074
			v19.3818h15.3994V88.8923h-0.0004V85.487h0.0004V71.5486h-35.71L298.9052,85.487L298.9052,85.487z"/>
		<path id="_x3C_Bana_x3E_" d="M238.5338,28.2792l-22.4366,84.4433l-22.4366-84.4433h-16.4684l25.4953,92.9418h26.291
			l25.4891-92.9418C254.4676,28.2792,238.5338,28.2792,238.5338,28.2792z"/>
	</g>
</g>
<g id="SYMBOL">
	<g>
		<path id="Bana_3" d="M88.4953,99.3867c-13.2015,1.3151-27.0267-3.0734-36.989-10.936l32.2957,55.4548
			c5.2589-9.0304,27.5073-47.2332,32.2952-55.4548C108.3582,94.5218,98.8302,98.4666,88.4953,99.3867z"/>
		<path id="Bana_2" d="M167.609,0l-49.275,0.0001c-7.1679,0.1405-17.041-0.3969-24.2325,0.952
			C79.1428,3.704,62.8351,12.8306,57.2802,32.3307c-1.4624,5.4561-1.6622,11.6327-0.0887,17.1392
			c4.1755,16.4984,22.2795,27.5076,37.678,18.829c6.9465-3.9763,11.3172-11.9695,10.6797-19.9794
			c-0.5545-11.0891-10.7206-20.2448-21.7564-20.0407c5.9304-5.0486,14.1964-7.3214,21.8865-6.071
			c0.0001,0.0001,0.0001,0.0002,0.0002,0.0002c17.2033,2.7695,28.8366,22.1179,26.0174,39.4536L167.609,0z"/>
		<path id="Bana_1" d="M72.8482,0.0001H0l35.9083,61.6612c-0.5586-3.119-0.884-6.3408-0.8752-9.6206
			C35.1025,26.347,52.742,7.6638,72.8482,0.0001z"/>
	</g>
</g>
</svg>
